<svg width="106" height="110" viewBox="0 0 106 110" fill="none" xmlns="http://www.w3.org/2000/svg">
<path fill-rule="evenodd" clip-rule="evenodd" d="M52.9999 0.675934L63.6375 8.3934L76.5702 6.05571L82.8059 17.6244L95.4722 21.1295L96.0709 34.2581L105.962 42.9118L100.805 55L105.962 67.0882L96.0709 75.7419L95.4722 88.8705L82.8059 92.3756L76.5702 103.944L63.6375 101.607L52.9999 109.324L42.3622 101.607L29.4296 103.944L23.1938 92.3756L10.5276 88.8705L9.92891 75.7419L0.0378418 67.0882L5.19471 55L0.037842 42.9118L9.92891 34.2581L10.5276 21.1295L23.1938 17.6244L29.4296 6.05571L42.3622 8.3934L52.9999 0.675934ZM52.9999 9.32406L44.0557 15.8129L33.1818 13.8474L27.9388 23.5744L17.289 26.5215L16.7856 37.5601L8.46914 44.8362L12.8051 55L8.46914 65.1638L16.7856 72.4399L17.289 83.4785L27.9388 86.4256L33.1818 96.1526L44.0557 94.1871L52.9999 100.676L61.9441 94.1871L72.8179 96.1526L78.0609 86.4256L88.7108 83.4785L89.2142 72.4399L97.5306 65.1638L93.1947 55L97.5306 44.8362L89.2142 37.5601L88.7108 26.5215L78.0609 23.5744L72.8179 13.8474L61.9441 15.8129L52.9999 9.32406Z" fill="url(#paint0_linear)"/>
<defs>
<linearGradient id="paint0_linear" x1="114.83" y1="4.99999" x2="1.57946" y2="115.64" gradientUnits="userSpaceOnUse">
<stop stop-color="#F93995"/>
<stop offset="0.53613" stop-color="#6B39F9"/>
<stop offset="1" stop-color="#39A8F9"/>
</linearGradient>
</defs>
</svg>
