<svg width="375" height="812" viewBox="0 0 375 812" fill="none" xmlns="http://www.w3.org/2000/svg">
<g opacity="0.4">
<circle cx="14.4643" cy="2.82143" r="4.82143" fill="#240B6C"/>
<circle cx="72.1071" cy="2.82143" r="4.82143" fill="#3A06CC"/>
<circle cx="129.75" cy="2.82143" r="4.82143" fill="#240B6C"/>
<circle cx="187.393" cy="2.82143" r="4.82143" fill="#3A06CC"/>
<circle cx="245.036" cy="2.82143" r="4.82143" fill="#240B6C"/>
<circle cx="302.679" cy="2.82143" r="4.82143" fill="#3A06CC"/>
<circle cx="360.321" cy="2.82143" r="4.82143" fill="#240B6C"/>
<circle cx="14.4643" cy="60.4643" r="4.82143" fill="#3A06CC"/>
<circle cx="72.1071" cy="60.4643" r="4.82143" fill="#240B6C"/>
<circle cx="129.75" cy="60.4643" r="4.82143" fill="#3A06CC"/>
<circle cx="187.393" cy="60.4643" r="4.82143" fill="#240B6C"/>
<circle cx="245.036" cy="60.4643" r="4.82143" fill="#3A06CC"/>
<circle cx="302.679" cy="60.4643" r="4.82143" fill="#240B6C"/>
<circle cx="360.321" cy="60.4643" r="4.82143" fill="#3A06CC"/>
<circle cx="14.4643" cy="118.107" r="4.82143" fill="#240B6C"/>
<circle cx="72.1071" cy="118.107" r="4.82143" fill="#3A06CC"/>
<circle cx="129.75" cy="118.107" r="4.82143" fill="#240B6C"/>
<circle cx="187.393" cy="118.107" r="4.82143" fill="#3A06CC"/>
<circle cx="245.036" cy="118.107" r="4.82143" fill="#240B6C"/>
<circle cx="302.679" cy="118.107" r="4.82143" fill="#3A06CC"/>
<circle cx="360.321" cy="118.107" r="4.82143" fill="#240B6C"/>
<circle cx="14.4643" cy="175.75" r="4.82143" fill="#3A06CC"/>
<circle cx="72.1071" cy="175.75" r="4.82143" fill="#240B6C"/>
<circle cx="129.75" cy="175.75" r="4.82143" fill="#3A06CC"/>
<circle cx="187.393" cy="175.75" r="4.82143" fill="#240B6C"/>
<circle cx="245.036" cy="175.75" r="4.82143" fill="#3A06CC"/>
<circle cx="302.679" cy="175.75" r="4.82143" fill="#240B6C"/>
<circle cx="360.321" cy="175.75" r="4.82143" fill="#3A06CC"/>
<circle cx="14.4643" cy="233.393" r="4.82143" fill="#240B6C"/>
<circle cx="72.1071" cy="233.393" r="4.82143" fill="#3A06CC"/>
<circle cx="129.75" cy="233.393" r="4.82143" fill="#240B6C"/>
<circle cx="187.393" cy="233.393" r="4.82143" fill="#3A06CC"/>
<circle cx="245.036" cy="233.393" r="4.82143" fill="#240B6C"/>
<circle cx="302.679" cy="233.393" r="4.82143" fill="#3A06CC"/>
<circle cx="360.321" cy="233.393" r="4.82143" fill="#240B6C"/>
<circle cx="14.4643" cy="291.036" r="4.82143" fill="#3A06CC"/>
<circle cx="72.1071" cy="291.036" r="4.82143" fill="#240B6C"/>
<circle cx="129.75" cy="291.036" r="4.82143" fill="#3A06CC"/>
<circle cx="187.393" cy="291.036" r="4.82143" fill="#240B6C"/>
<circle cx="245.036" cy="291.036" r="4.82143" fill="#3A06CC"/>
<circle cx="302.679" cy="291.036" r="4.82143" fill="#240B6C"/>
<circle cx="360.321" cy="291.036" r="4.82143" fill="#3A06CC"/>
<circle cx="14.4643" cy="348.679" r="4.82143" fill="#240B6C"/>
<circle cx="72.1071" cy="348.679" r="4.82143" fill="#3A06CC"/>
<circle cx="129.75" cy="348.679" r="4.82143" fill="#240B6C"/>
<circle cx="187.393" cy="348.679" r="4.82143" fill="#3A06CC"/>
<circle cx="245.036" cy="348.679" r="4.82143" fill="#240B6C"/>
<circle cx="302.679" cy="348.679" r="4.82143" fill="#3A06CC"/>
<circle cx="360.321" cy="348.679" r="4.82143" fill="#240B6C"/>
<circle cx="14.4643" cy="406.321" r="4.82143" fill="#3A06CC"/>
<circle cx="72.1071" cy="406.321" r="4.82143" fill="#240B6C"/>
<circle cx="129.75" cy="406.321" r="4.82143" fill="#3A06CC"/>
<circle cx="187.393" cy="406.321" r="4.82143" fill="#240B6C"/>
<circle cx="245.036" cy="406.321" r="4.82143" fill="#3A06CC"/>
<circle cx="302.679" cy="406.321" r="4.82143" fill="#240B6C"/>
<circle cx="360.321" cy="406.321" r="4.82143" fill="#3A06CC"/>
<circle cx="14.4643" cy="463.964" r="4.82143" fill="#240B6C"/>
<circle cx="72.1071" cy="463.964" r="4.82143" fill="#3A06CC"/>
<circle cx="129.75" cy="463.964" r="4.82143" fill="#240B6C"/>
<circle cx="187.393" cy="463.964" r="4.82143" fill="#3A06CC"/>
<circle cx="245.036" cy="463.964" r="4.82143" fill="#240B6C"/>
<circle cx="302.679" cy="463.964" r="4.82143" fill="#3A06CC"/>
<circle cx="360.321" cy="463.964" r="4.82143" fill="#240B6C"/>
<circle cx="14.4643" cy="521.607" r="4.82143" fill="#3A06CC"/>
<circle cx="72.1071" cy="521.607" r="4.82143" fill="#240B6C"/>
<circle cx="129.75" cy="521.607" r="4.82143" fill="#3A06CC"/>
<circle cx="187.393" cy="521.607" r="4.82143" fill="#240B6C"/>
<circle cx="245.036" cy="521.607" r="4.82143" fill="#3A06CC"/>
<circle cx="302.679" cy="521.607" r="4.82143" fill="#240B6C"/>
<circle cx="360.321" cy="521.607" r="4.82143" fill="#3A06CC"/>
<circle cx="14.4643" cy="578.821" r="4.82143" fill="#240B6C"/>
<circle cx="72.1071" cy="578.821" r="4.82143" fill="#3A06CC"/>
<circle cx="129.75" cy="578.821" r="4.82143" fill="#240B6C"/>
<circle cx="187.393" cy="578.821" r="4.82143" fill="#3A06CC"/>
<circle cx="245.036" cy="578.821" r="4.82143" fill="#240B6C"/>
<circle cx="302.679" cy="578.821" r="4.82143" fill="#3A06CC"/>
<circle cx="360.321" cy="578.821" r="4.82143" fill="#240B6C"/>
<circle cx="14.4643" cy="636.464" r="4.82143" fill="#3A06CC"/>
<circle cx="72.1071" cy="636.464" r="4.82143" fill="#240B6C"/>
<circle cx="129.75" cy="636.464" r="4.82143" fill="#3A06CC"/>
<circle cx="187.393" cy="636.464" r="4.82143" fill="#240B6C"/>
<circle cx="245.036" cy="636.464" r="4.82143" fill="#3A06CC"/>
<circle cx="302.679" cy="636.464" r="4.82143" fill="#240B6C"/>
<circle cx="360.321" cy="636.464" r="4.82143" fill="#3A06CC"/>
<circle cx="14.4643" cy="694.107" r="4.82143" fill="#240B6C"/>
<circle cx="72.1071" cy="694.107" r="4.82143" fill="#3A06CC"/>
<circle cx="129.75" cy="694.107" r="4.82143" fill="#240B6C"/>
<circle cx="187.393" cy="694.107" r="4.82143" fill="#3A06CC"/>
<circle cx="245.036" cy="694.107" r="4.82143" fill="#240B6C"/>
<circle cx="302.679" cy="694.107" r="4.82143" fill="#3A06CC"/>
<circle cx="360.321" cy="694.107" r="4.82143" fill="#240B6C"/>
<circle cx="14.4643" cy="751.75" r="4.82143" fill="#3A06CC"/>
<circle cx="72.1071" cy="751.75" r="4.82143" fill="#240B6C"/>
<circle cx="129.75" cy="751.75" r="4.82143" fill="#3A06CC"/>
<circle cx="187.393" cy="751.75" r="4.82143" fill="#240B6C"/>
<circle cx="245.036" cy="751.75" r="4.82143" fill="#3A06CC"/>
<circle cx="302.679" cy="751.75" r="4.82143" fill="#240B6C"/>
<circle cx="360.321" cy="751.75" r="4.82143" fill="#3A06CC"/>
<circle cx="14.4643" cy="809.393" r="4.82143" fill="#240B6C"/>
<circle cx="72.1071" cy="809.393" r="4.82143" fill="#3A06CC"/>
<circle cx="129.75" cy="809.393" r="4.82143" fill="#240B6C"/>
<circle cx="187.393" cy="809.393" r="4.82143" fill="#3A06CC"/>
<circle cx="245.036" cy="809.393" r="4.82143" fill="#240B6C"/>
<circle cx="302.679" cy="809.393" r="4.82143" fill="#3A06CC"/>
<circle cx="360.321" cy="809.393" r="4.82143" fill="#240B6C"/>
</g>
<rect x="-48" y="-1" width="528" height="814" fill="url(#paint0_radial)"/>
<defs>
<radialGradient id="paint0_radial" cx="0" cy="0" r="1" gradientUnits="userSpaceOnUse" gradientTransform="translate(216 406) rotate(90) scale(218 263.393)">
<stop stop-color="#060148"/>
<stop offset="0.0001" stop-color="#060148" stop-opacity="0.996719"/>
<stop offset="1" stop-color="#240B6C" stop-opacity="0.37"/>
</radialGradient>
</defs>
</svg>
