<svg width="1105" height="1105" viewBox="0 0 1105 1105" fill="none" xmlns="http://www.w3.org/2000/svg">
<g opacity="0.4">
<circle cx="4.82143" cy="4.82143" r="4.82143" fill="#240B6C"/>
<circle cx="62.4643" cy="4.82143" r="4.82143" fill="#240B6C"/>
<circle cx="120.107" cy="4.82143" r="4.82143" fill="#3A06CC"/>
<circle cx="177.75" cy="4.82143" r="4.82143" fill="#240B6C"/>
<circle cx="235.393" cy="4.82143" r="4.82143" fill="#3A06CC"/>
<circle cx="293.036" cy="4.82143" r="4.82143" fill="#240B6C"/>
<circle cx="350.679" cy="4.82143" r="4.82143" fill="#3A06CC"/>
<circle cx="408.321" cy="4.82143" r="4.82143" fill="#240B6C"/>
<circle cx="465.964" cy="4.82143" r="4.82143" fill="#240B6C"/>
<circle cx="523.607" cy="4.82143" r="4.82143" fill="#240B6C"/>
<circle cx="4.82143" cy="62.4643" r="4.82143" fill="#240B6C"/>
<circle cx="62.4643" cy="62.4643" r="4.82143" fill="#3A06CC"/>
<circle cx="120.107" cy="62.4643" r="4.82143" fill="#240B6C"/>
<circle cx="177.75" cy="62.4643" r="4.82143" fill="#3A06CC"/>
<circle cx="235.393" cy="62.4643" r="4.82143" fill="#240B6C"/>
<circle cx="293.036" cy="62.4643" r="4.82143" fill="#3A06CC"/>
<circle cx="350.679" cy="62.4643" r="4.82143" fill="#240B6C"/>
<circle cx="408.321" cy="62.4643" r="4.82143" fill="#3A06CC"/>
<circle cx="465.964" cy="62.4643" r="4.82143" fill="#240B6C"/>
<circle cx="523.607" cy="62.4643" r="4.82143" fill="#240B6C"/>
<circle cx="4.82143" cy="120.107" r="4.82143" fill="#240B6C"/>
<circle cx="62.4643" cy="120.107" r="4.82143" fill="#240B6C"/>
<circle cx="120.107" cy="120.107" r="4.82143" fill="#3A06CC"/>
<circle cx="177.75" cy="120.107" r="4.82143" fill="#240B6C"/>
<circle cx="235.393" cy="120.107" r="4.82143" fill="#3A06CC"/>
<circle cx="293.036" cy="120.107" r="4.82143" fill="#240B6C"/>
<circle cx="350.679" cy="120.107" r="4.82143" fill="#3A06CC"/>
<circle cx="408.321" cy="120.107" r="4.82143" fill="#240B6C"/>
<circle cx="465.964" cy="120.107" r="4.82143" fill="#240B6C"/>
<circle cx="523.607" cy="120.107" r="4.82143" fill="#240B6C"/>
<circle cx="4.82143" cy="177.75" r="4.82143" fill="#240B6C"/>
<circle cx="62.4643" cy="177.75" r="4.82143" fill="#3A06CC"/>
<circle cx="120.107" cy="177.75" r="4.82143" fill="#240B6C"/>
<circle cx="177.75" cy="177.75" r="4.82143" fill="#3A06CC"/>
<circle cx="235.393" cy="177.75" r="4.82143" fill="#240B6C"/>
<circle cx="293.036" cy="177.75" r="4.82143" fill="#3A06CC"/>
<circle cx="350.679" cy="177.75" r="4.82143" fill="#240B6C"/>
<circle cx="408.321" cy="177.75" r="4.82143" fill="#3A06CC"/>
<circle cx="465.964" cy="177.75" r="4.82143" fill="#240B6C"/>
<circle cx="523.607" cy="177.75" r="4.82143" fill="#240B6C"/>
<circle cx="4.82143" cy="235.393" r="4.82143" fill="#240B6C"/>
<circle cx="62.4643" cy="235.393" r="4.82143" fill="#240B6C"/>
<circle cx="120.107" cy="235.393" r="4.82143" fill="#3A06CC"/>
<circle cx="177.75" cy="235.393" r="4.82143" fill="#240B6C"/>
<circle cx="235.393" cy="235.393" r="4.82143" fill="#3A06CC"/>
<circle cx="293.036" cy="235.393" r="4.82143" fill="#240B6C"/>
<circle cx="350.679" cy="235.393" r="4.82143" fill="#3A06CC"/>
<circle cx="408.321" cy="235.393" r="4.82143" fill="#240B6C"/>
<circle cx="465.964" cy="235.393" r="4.82143" fill="#240B6C"/>
<circle cx="523.607" cy="235.393" r="4.82143" fill="#240B6C"/>
<circle cx="4.82143" cy="293.036" r="4.82143" fill="#240B6C"/>
<circle cx="62.4643" cy="293.036" r="4.82143" fill="#3A06CC"/>
<circle cx="120.107" cy="293.036" r="4.82143" fill="#240B6C"/>
<circle cx="177.75" cy="293.036" r="4.82143" fill="#3A06CC"/>
<circle cx="235.393" cy="293.036" r="4.82143" fill="#240B6C"/>
<circle cx="293.036" cy="293.036" r="4.82143" fill="#3A06CC"/>
<circle cx="350.679" cy="293.036" r="4.82143" fill="#240B6C"/>
<circle cx="408.321" cy="293.036" r="4.82143" fill="#3A06CC"/>
<circle cx="465.964" cy="293.036" r="4.82143" fill="#240B6C"/>
<circle cx="523.607" cy="293.036" r="4.82143" fill="#240B6C"/>
<circle cx="4.82143" cy="350.679" r="4.82143" fill="#240B6C"/>
<circle cx="62.4643" cy="350.679" r="4.82143" fill="#240B6C"/>
<circle cx="120.107" cy="350.679" r="4.82143" fill="#3A06CC"/>
<circle cx="177.75" cy="350.679" r="4.82143" fill="#240B6C"/>
<circle cx="235.393" cy="350.679" r="4.82143" fill="#3A06CC"/>
<circle cx="293.036" cy="350.679" r="4.82143" fill="#240B6C"/>
<circle cx="350.679" cy="350.679" r="4.82143" fill="#3A06CC"/>
<circle cx="408.321" cy="350.679" r="4.82143" fill="#240B6C"/>
<circle cx="465.964" cy="350.679" r="4.82143" fill="#240B6C"/>
<circle cx="523.607" cy="350.679" r="4.82143" fill="#240B6C"/>
<circle cx="4.82143" cy="408.321" r="4.82143" fill="#240B6C"/>
<circle cx="62.4643" cy="408.321" r="4.82143" fill="#3A06CC"/>
<circle cx="120.107" cy="408.321" r="4.82143" fill="#240B6C"/>
<circle cx="177.75" cy="408.321" r="4.82143" fill="#3A06CC"/>
<circle cx="235.393" cy="408.321" r="4.82143" fill="#240B6C"/>
<circle cx="293.036" cy="408.321" r="4.82143" fill="#3A06CC"/>
<circle cx="350.679" cy="408.321" r="4.82143" fill="#240B6C"/>
<circle cx="408.321" cy="408.321" r="4.82143" fill="#3A06CC"/>
<circle cx="465.964" cy="408.321" r="4.82143" fill="#240B6C"/>
<circle cx="523.607" cy="408.321" r="4.82143" fill="#240B6C"/>
<circle cx="4.82143" cy="465.964" r="4.82143" fill="#240B6C"/>
<circle cx="62.4643" cy="465.964" r="4.82143" fill="#240B6C"/>
<circle cx="120.107" cy="465.964" r="4.82143" fill="#3A06CC"/>
<circle cx="177.75" cy="465.964" r="4.82143" fill="#240B6C"/>
<circle cx="235.393" cy="465.964" r="4.82143" fill="#3A06CC"/>
<circle cx="293.036" cy="465.964" r="4.82143" fill="#240B6C"/>
<circle cx="350.679" cy="465.964" r="4.82143" fill="#3A06CC"/>
<circle cx="408.321" cy="465.964" r="4.82143" fill="#240B6C"/>
<circle cx="465.964" cy="465.964" r="4.82143" fill="#240B6C"/>
<circle cx="523.607" cy="465.964" r="4.82143" fill="#240B6C"/>
<circle cx="4.82143" cy="523.607" r="4.82143" fill="#240B6C"/>
<circle cx="62.4643" cy="523.607" r="4.82143" fill="#3A06CC"/>
<circle cx="120.107" cy="523.607" r="4.82143" fill="#240B6C"/>
<circle cx="177.75" cy="523.607" r="4.82143" fill="#3A06CC"/>
<circle cx="235.393" cy="523.607" r="4.82143" fill="#240B6C"/>
<circle cx="293.036" cy="523.607" r="4.82143" fill="#3A06CC"/>
<circle cx="350.679" cy="523.607" r="4.82143" fill="#240B6C"/>
<circle cx="408.321" cy="523.607" r="4.82143" fill="#3A06CC"/>
<circle cx="465.964" cy="523.607" r="4.82143" fill="#240B6C"/>
<circle cx="523.607" cy="523.607" r="4.82143" fill="#240B6C"/>
<circle cx="580.821" cy="4.82143" r="4.82143" fill="#240B6C"/>
<circle cx="638.464" cy="4.82143" r="4.82143" fill="#240B6C"/>
<circle cx="696.107" cy="4.82143" r="4.82143" fill="#3A06CC"/>
<circle cx="753.75" cy="4.82143" r="4.82143" fill="#240B6C"/>
<circle cx="811.393" cy="4.82143" r="4.82143" fill="#3A06CC"/>
<circle cx="869.036" cy="4.82143" r="4.82143" fill="#240B6C"/>
<circle cx="926.679" cy="4.82143" r="4.82143" fill="#3A06CC"/>
<circle cx="984.321" cy="4.82143" r="4.82143" fill="#240B6C"/>
<circle cx="1041.96" cy="4.82143" r="4.82143" fill="#240B6C"/>
<circle cx="1099.61" cy="4.82143" r="4.82143" fill="#240B6C"/>
<circle cx="580.821" cy="62.4643" r="4.82143" fill="#240B6C"/>
<circle cx="638.464" cy="62.4643" r="4.82143" fill="#3A06CC"/>
<circle cx="696.107" cy="62.4643" r="4.82143" fill="#240B6C"/>
<circle cx="753.75" cy="62.4643" r="4.82143" fill="#3A06CC"/>
<circle cx="811.393" cy="62.4643" r="4.82143" fill="#240B6C"/>
<circle cx="869.036" cy="62.4643" r="4.82143" fill="#3A06CC"/>
<circle cx="926.679" cy="62.4643" r="4.82143" fill="#240B6C"/>
<circle cx="984.321" cy="62.4643" r="4.82143" fill="#3A06CC"/>
<circle cx="1041.96" cy="62.4643" r="4.82143" fill="#240B6C"/>
<circle cx="1099.61" cy="62.4643" r="4.82143" fill="#240B6C"/>
<circle cx="580.821" cy="120.107" r="4.82143" fill="#240B6C"/>
<circle cx="638.464" cy="120.107" r="4.82143" fill="#240B6C"/>
<circle cx="696.107" cy="120.107" r="4.82143" fill="#3A06CC"/>
<circle cx="753.75" cy="120.107" r="4.82143" fill="#240B6C"/>
<circle cx="811.393" cy="120.107" r="4.82143" fill="#3A06CC"/>
<circle cx="869.036" cy="120.107" r="4.82143" fill="#240B6C"/>
<circle cx="926.679" cy="120.107" r="4.82143" fill="#3A06CC"/>
<circle cx="984.321" cy="120.107" r="4.82143" fill="#240B6C"/>
<circle cx="1041.96" cy="120.107" r="4.82143" fill="#240B6C"/>
<circle cx="1099.61" cy="120.107" r="4.82143" fill="#240B6C"/>
<circle cx="580.821" cy="177.75" r="4.82143" fill="#240B6C"/>
<circle cx="638.464" cy="177.75" r="4.82143" fill="#3A06CC"/>
<circle cx="696.107" cy="177.75" r="4.82143" fill="#240B6C"/>
<circle cx="753.75" cy="177.75" r="4.82143" fill="#3A06CC"/>
<circle cx="811.393" cy="177.75" r="4.82143" fill="#240B6C"/>
<circle cx="869.036" cy="177.75" r="4.82143" fill="#3A06CC"/>
<circle cx="926.679" cy="177.75" r="4.82143" fill="#240B6C"/>
<circle cx="984.321" cy="177.75" r="4.82143" fill="#3A06CC"/>
<circle cx="1041.96" cy="177.75" r="4.82143" fill="#240B6C"/>
<circle cx="1099.61" cy="177.75" r="4.82143" fill="#240B6C"/>
<circle cx="580.821" cy="235.393" r="4.82143" fill="#240B6C"/>
<circle cx="638.464" cy="235.393" r="4.82143" fill="#240B6C"/>
<circle cx="696.107" cy="235.393" r="4.82143" fill="#3A06CC"/>
<circle cx="753.75" cy="235.393" r="4.82143" fill="#240B6C"/>
<circle cx="811.393" cy="235.393" r="4.82143" fill="#3A06CC"/>
<circle cx="869.036" cy="235.393" r="4.82143" fill="#240B6C"/>
<circle cx="926.679" cy="235.393" r="4.82143" fill="#3A06CC"/>
<circle cx="984.321" cy="235.393" r="4.82143" fill="#240B6C"/>
<circle cx="1041.96" cy="235.393" r="4.82143" fill="#240B6C"/>
<circle cx="1099.61" cy="235.393" r="4.82143" fill="#240B6C"/>
<circle cx="580.821" cy="293.036" r="4.82143" fill="#240B6C"/>
<circle cx="638.464" cy="293.036" r="4.82143" fill="#3A06CC"/>
<circle cx="696.107" cy="293.036" r="4.82143" fill="#240B6C"/>
<circle cx="753.75" cy="293.036" r="4.82143" fill="#3A06CC"/>
<circle cx="811.393" cy="293.036" r="4.82143" fill="#240B6C"/>
<circle cx="869.036" cy="293.036" r="4.82143" fill="#3A06CC"/>
<circle cx="926.679" cy="293.036" r="4.82143" fill="#240B6C"/>
<circle cx="984.321" cy="293.036" r="4.82143" fill="#3A06CC"/>
<circle cx="1041.96" cy="293.036" r="4.82143" fill="#240B6C"/>
<circle cx="1099.61" cy="293.036" r="4.82143" fill="#240B6C"/>
<circle cx="580.821" cy="350.679" r="4.82143" fill="#240B6C"/>
<circle cx="638.464" cy="350.679" r="4.82143" fill="#240B6C"/>
<circle cx="696.107" cy="350.679" r="4.82143" fill="#3A06CC"/>
<circle cx="753.75" cy="350.679" r="4.82143" fill="#240B6C"/>
<circle cx="811.393" cy="350.679" r="4.82143" fill="#3A06CC"/>
<circle cx="869.036" cy="350.679" r="4.82143" fill="#240B6C"/>
<circle cx="926.679" cy="350.679" r="4.82143" fill="#3A06CC"/>
<circle cx="984.321" cy="350.679" r="4.82143" fill="#240B6C"/>
<circle cx="1041.96" cy="350.679" r="4.82143" fill="#240B6C"/>
<circle cx="1099.61" cy="350.679" r="4.82143" fill="#240B6C"/>
<circle cx="580.821" cy="408.321" r="4.82143" fill="#240B6C"/>
<circle cx="638.464" cy="408.321" r="4.82143" fill="#3A06CC"/>
<circle cx="696.107" cy="408.321" r="4.82143" fill="#240B6C"/>
<circle cx="753.75" cy="408.321" r="4.82143" fill="#3A06CC"/>
<circle cx="811.393" cy="408.321" r="4.82143" fill="#240B6C"/>
<circle cx="869.036" cy="408.321" r="4.82143" fill="#3A06CC"/>
<circle cx="926.679" cy="408.321" r="4.82143" fill="#240B6C"/>
<circle cx="984.321" cy="408.321" r="4.82143" fill="#3A06CC"/>
<circle cx="1041.96" cy="408.321" r="4.82143" fill="#240B6C"/>
<circle cx="1099.61" cy="408.321" r="4.82143" fill="#240B6C"/>
<circle cx="580.821" cy="465.964" r="4.82143" fill="#240B6C"/>
<circle cx="638.464" cy="465.964" r="4.82143" fill="#240B6C"/>
<circle cx="696.107" cy="465.964" r="4.82143" fill="#3A06CC"/>
<circle cx="753.75" cy="465.964" r="4.82143" fill="#240B6C"/>
<circle cx="811.393" cy="465.964" r="4.82143" fill="#3A06CC"/>
<circle cx="869.036" cy="465.964" r="4.82143" fill="#240B6C"/>
<circle cx="926.679" cy="465.964" r="4.82143" fill="#3A06CC"/>
<circle cx="984.321" cy="465.964" r="4.82143" fill="#240B6C"/>
<circle cx="1041.96" cy="465.964" r="4.82143" fill="#240B6C"/>
<circle cx="1099.61" cy="465.964" r="4.82143" fill="#240B6C"/>
<circle cx="580.821" cy="523.607" r="4.82143" fill="#240B6C"/>
<circle cx="638.464" cy="523.607" r="4.82143" fill="#3A06CC"/>
<circle cx="696.107" cy="523.607" r="4.82143" fill="#240B6C"/>
<circle cx="753.75" cy="523.607" r="4.82143" fill="#3A06CC"/>
<circle cx="811.393" cy="523.607" r="4.82143" fill="#240B6C"/>
<circle cx="869.036" cy="523.607" r="4.82143" fill="#3A06CC"/>
<circle cx="926.679" cy="523.607" r="4.82143" fill="#240B6C"/>
<circle cx="984.321" cy="523.607" r="4.82143" fill="#3A06CC"/>
<circle cx="1041.96" cy="523.607" r="4.82143" fill="#240B6C"/>
<circle cx="1099.61" cy="523.607" r="4.82143" fill="#240B6C"/>
<circle cx="4.82143" cy="580.821" r="4.82143" fill="#240B6C"/>
<circle cx="62.4643" cy="580.821" r="4.82143" fill="#240B6C"/>
<circle cx="120.107" cy="580.821" r="4.82143" fill="#3A06CC"/>
<circle cx="177.75" cy="580.821" r="4.82143" fill="#240B6C"/>
<circle cx="235.393" cy="580.821" r="4.82143" fill="#3A06CC"/>
<circle cx="293.036" cy="580.821" r="4.82143" fill="#240B6C"/>
<circle cx="350.679" cy="580.821" r="4.82143" fill="#3A06CC"/>
<circle cx="408.321" cy="580.821" r="4.82143" fill="#240B6C"/>
<circle cx="465.964" cy="580.821" r="4.82143" fill="#240B6C"/>
<circle cx="523.607" cy="580.821" r="4.82143" fill="#240B6C"/>
<circle cx="4.82143" cy="638.464" r="4.82143" fill="#240B6C"/>
<circle cx="62.4643" cy="638.464" r="4.82143" fill="#3A06CC"/>
<circle cx="120.107" cy="638.464" r="4.82143" fill="#240B6C"/>
<circle cx="177.75" cy="638.464" r="4.82143" fill="#3A06CC"/>
<circle cx="235.393" cy="638.464" r="4.82143" fill="#240B6C"/>
<circle cx="293.036" cy="638.464" r="4.82143" fill="#3A06CC"/>
<circle cx="350.679" cy="638.464" r="4.82143" fill="#240B6C"/>
<circle cx="408.321" cy="638.464" r="4.82143" fill="#3A06CC"/>
<circle cx="465.964" cy="638.464" r="4.82143" fill="#240B6C"/>
<circle cx="523.607" cy="638.464" r="4.82143" fill="#240B6C"/>
<circle cx="4.82143" cy="696.107" r="4.82143" fill="#240B6C"/>
<circle cx="62.4643" cy="696.107" r="4.82143" fill="#240B6C"/>
<circle cx="120.107" cy="696.107" r="4.82143" fill="#3A06CC"/>
<circle cx="177.75" cy="696.107" r="4.82143" fill="#240B6C"/>
<circle cx="235.393" cy="696.107" r="4.82143" fill="#3A06CC"/>
<circle cx="293.036" cy="696.107" r="4.82143" fill="#240B6C"/>
<circle cx="350.679" cy="696.107" r="4.82143" fill="#3A06CC"/>
<circle cx="408.321" cy="696.107" r="4.82143" fill="#240B6C"/>
<circle cx="465.964" cy="696.107" r="4.82143" fill="#240B6C"/>
<circle cx="523.607" cy="696.107" r="4.82143" fill="#240B6C"/>
<circle cx="4.82143" cy="753.75" r="4.82143" fill="#240B6C"/>
<circle cx="62.4643" cy="753.75" r="4.82143" fill="#3A06CC"/>
<circle cx="120.107" cy="753.75" r="4.82143" fill="#240B6C"/>
<circle cx="177.75" cy="753.75" r="4.82143" fill="#3A06CC"/>
<circle cx="235.393" cy="753.75" r="4.82143" fill="#240B6C"/>
<circle cx="293.036" cy="753.75" r="4.82143" fill="#3A06CC"/>
<circle cx="350.679" cy="753.75" r="4.82143" fill="#240B6C"/>
<circle cx="408.321" cy="753.75" r="4.82143" fill="#3A06CC"/>
<circle cx="465.964" cy="753.75" r="4.82143" fill="#240B6C"/>
<circle cx="523.607" cy="753.75" r="4.82143" fill="#240B6C"/>
<circle cx="4.82143" cy="811.393" r="4.82143" fill="#240B6C"/>
<circle cx="62.4643" cy="811.393" r="4.82143" fill="#240B6C"/>
<circle cx="120.107" cy="811.393" r="4.82143" fill="#3A06CC"/>
<circle cx="177.75" cy="811.393" r="4.82143" fill="#240B6C"/>
<circle cx="235.393" cy="811.393" r="4.82143" fill="#3A06CC"/>
<circle cx="293.036" cy="811.393" r="4.82143" fill="#240B6C"/>
<circle cx="350.679" cy="811.393" r="4.82143" fill="#3A06CC"/>
<circle cx="408.321" cy="811.393" r="4.82143" fill="#240B6C"/>
<circle cx="465.964" cy="811.393" r="4.82143" fill="#240B6C"/>
<circle cx="523.607" cy="811.393" r="4.82143" fill="#240B6C"/>
<circle cx="4.82143" cy="869.036" r="4.82143" fill="#240B6C"/>
<circle cx="62.4643" cy="869.036" r="4.82143" fill="#3A06CC"/>
<circle cx="120.107" cy="869.036" r="4.82143" fill="#240B6C"/>
<circle cx="177.75" cy="869.036" r="4.82143" fill="#3A06CC"/>
<circle cx="235.393" cy="869.036" r="4.82143" fill="#240B6C"/>
<circle cx="293.036" cy="869.036" r="4.82143" fill="#3A06CC"/>
<circle cx="350.679" cy="869.036" r="4.82143" fill="#240B6C"/>
<circle cx="408.321" cy="869.036" r="4.82143" fill="#3A06CC"/>
<circle cx="465.964" cy="869.036" r="4.82143" fill="#240B6C"/>
<circle cx="523.607" cy="869.036" r="4.82143" fill="#240B6C"/>
<circle cx="4.82143" cy="926.679" r="4.82143" fill="#240B6C"/>
<circle cx="62.4643" cy="926.679" r="4.82143" fill="#240B6C"/>
<circle cx="120.107" cy="926.679" r="4.82143" fill="#240B6C"/>
<circle cx="177.75" cy="926.679" r="4.82143" fill="#240B6C"/>
<circle cx="235.393" cy="926.679" r="4.82143" fill="#240B6C"/>
<circle cx="293.036" cy="926.679" r="4.82143" fill="#240B6C"/>
<circle cx="350.679" cy="926.679" r="4.82143" fill="#240B6C"/>
<circle cx="408.321" cy="926.679" r="4.82143" fill="#240B6C"/>
<circle cx="465.964" cy="926.679" r="4.82143" fill="#240B6C"/>
<circle cx="523.607" cy="926.679" r="4.82143" fill="#240B6C"/>
<circle cx="4.82143" cy="984.321" r="4.82143" fill="#240B6C"/>
<circle cx="62.4643" cy="984.321" r="4.82143" fill="#240B6C"/>
<circle cx="120.107" cy="984.321" r="4.82143" fill="#240B6C"/>
<circle cx="177.75" cy="984.321" r="4.82143" fill="#240B6C"/>
<circle cx="235.393" cy="984.321" r="4.82143" fill="#240B6C"/>
<circle cx="293.036" cy="984.321" r="4.82143" fill="#240B6C"/>
<circle cx="350.679" cy="984.321" r="4.82143" fill="#240B6C"/>
<circle cx="408.321" cy="984.321" r="4.82143" fill="#240B6C"/>
<circle cx="465.964" cy="984.321" r="4.82143" fill="#240B6C"/>
<circle cx="523.607" cy="984.321" r="4.82143" fill="#240B6C"/>
<circle cx="4.82143" cy="1041.96" r="4.82143" fill="#240B6C"/>
<circle cx="62.4643" cy="1041.96" r="4.82143" fill="#240B6C"/>
<circle cx="120.107" cy="1041.96" r="4.82143" fill="#240B6C"/>
<circle cx="177.75" cy="1041.96" r="4.82143" fill="#240B6C"/>
<circle cx="235.393" cy="1041.96" r="4.82143" fill="#240B6C"/>
<circle cx="293.036" cy="1041.96" r="4.82143" fill="#240B6C"/>
<circle cx="350.679" cy="1041.96" r="4.82143" fill="#240B6C"/>
<circle cx="408.321" cy="1041.96" r="4.82143" fill="#240B6C"/>
<circle cx="465.964" cy="1041.96" r="4.82143" fill="#240B6C"/>
<circle cx="523.607" cy="1041.96" r="4.82143" fill="#240B6C"/>
<circle cx="4.82143" cy="1099.61" r="4.82143" fill="#240B6C"/>
<circle cx="62.4643" cy="1099.61" r="4.82143" fill="#240B6C"/>
<circle cx="120.107" cy="1099.61" r="4.82143" fill="#240B6C"/>
<circle cx="177.75" cy="1099.61" r="4.82143" fill="#240B6C"/>
<circle cx="235.393" cy="1099.61" r="4.82143" fill="#240B6C"/>
<circle cx="293.036" cy="1099.61" r="4.82143" fill="#240B6C"/>
<circle cx="350.679" cy="1099.61" r="4.82143" fill="#240B6C"/>
<circle cx="408.321" cy="1099.61" r="4.82143" fill="#240B6C"/>
<circle cx="465.964" cy="1099.61" r="4.82143" fill="#240B6C"/>
<circle cx="523.607" cy="1099.61" r="4.82143" fill="#240B6C"/>
<circle cx="580.821" cy="580.821" r="4.82143" fill="#240B6C"/>
<circle cx="638.464" cy="580.821" r="4.82143" fill="#240B6C"/>
<circle cx="696.107" cy="580.821" r="4.82143" fill="#3A06CC"/>
<circle cx="753.75" cy="580.821" r="4.82143" fill="#240B6C"/>
<circle cx="811.393" cy="580.821" r="4.82143" fill="#3A06CC"/>
<circle cx="869.036" cy="580.821" r="4.82143" fill="#240B6C"/>
<circle cx="926.679" cy="580.821" r="4.82143" fill="#3A06CC"/>
<circle cx="984.321" cy="580.821" r="4.82143" fill="#240B6C"/>
<circle cx="1041.96" cy="580.821" r="4.82143" fill="#240B6C"/>
<circle cx="1099.61" cy="580.821" r="4.82143" fill="#240B6C"/>
<circle cx="580.821" cy="638.464" r="4.82143" fill="#240B6C"/>
<circle cx="638.464" cy="638.464" r="4.82143" fill="#3A06CC"/>
<circle cx="696.107" cy="638.464" r="4.82143" fill="#240B6C"/>
<circle cx="753.75" cy="638.464" r="4.82143" fill="#3A06CC"/>
<circle cx="811.393" cy="638.464" r="4.82143" fill="#240B6C"/>
<circle cx="869.036" cy="638.464" r="4.82143" fill="#3A06CC"/>
<circle cx="926.679" cy="638.464" r="4.82143" fill="#240B6C"/>
<circle cx="984.321" cy="638.464" r="4.82143" fill="#3A06CC"/>
<circle cx="1041.96" cy="638.464" r="4.82143" fill="#240B6C"/>
<circle cx="1099.61" cy="638.464" r="4.82143" fill="#240B6C"/>
<circle cx="580.821" cy="696.107" r="4.82143" fill="#240B6C"/>
<circle cx="638.464" cy="696.107" r="4.82143" fill="#240B6C"/>
<circle cx="696.107" cy="696.107" r="4.82143" fill="#3A06CC"/>
<circle cx="753.75" cy="696.107" r="4.82143" fill="#240B6C"/>
<circle cx="811.393" cy="696.107" r="4.82143" fill="#3A06CC"/>
<circle cx="869.036" cy="696.107" r="4.82143" fill="#240B6C"/>
<circle cx="926.679" cy="696.107" r="4.82143" fill="#3A06CC"/>
<circle cx="984.321" cy="696.107" r="4.82143" fill="#240B6C"/>
<circle cx="1041.96" cy="696.107" r="4.82143" fill="#240B6C"/>
<circle cx="1099.61" cy="696.107" r="4.82143" fill="#240B6C"/>
<circle cx="580.821" cy="753.75" r="4.82143" fill="#240B6C"/>
<circle cx="638.464" cy="753.75" r="4.82143" fill="#3A06CC"/>
<circle cx="696.107" cy="753.75" r="4.82143" fill="#240B6C"/>
<circle cx="753.75" cy="753.75" r="4.82143" fill="#3A06CC"/>
<circle cx="811.393" cy="753.75" r="4.82143" fill="#240B6C"/>
<circle cx="869.036" cy="753.75" r="4.82143" fill="#3A06CC"/>
<circle cx="926.679" cy="753.75" r="4.82143" fill="#240B6C"/>
<circle cx="984.321" cy="753.75" r="4.82143" fill="#3A06CC"/>
<circle cx="1041.96" cy="753.75" r="4.82143" fill="#240B6C"/>
<circle cx="1099.61" cy="753.75" r="4.82143" fill="#240B6C"/>
<circle cx="580.821" cy="811.393" r="4.82143" fill="#240B6C"/>
<circle cx="638.464" cy="811.393" r="4.82143" fill="#240B6C"/>
<circle cx="696.107" cy="811.393" r="4.82143" fill="#3A06CC"/>
<circle cx="753.75" cy="811.393" r="4.82143" fill="#240B6C"/>
<circle cx="811.393" cy="811.393" r="4.82143" fill="#3A06CC"/>
<circle cx="869.036" cy="811.393" r="4.82143" fill="#240B6C"/>
<circle cx="926.679" cy="811.393" r="4.82143" fill="#3A06CC"/>
<circle cx="984.321" cy="811.393" r="4.82143" fill="#240B6C"/>
<circle cx="1041.96" cy="811.393" r="4.82143" fill="#240B6C"/>
<circle cx="1099.61" cy="811.393" r="4.82143" fill="#240B6C"/>
<circle cx="580.821" cy="869.036" r="4.82143" fill="#240B6C"/>
<circle cx="638.464" cy="869.036" r="4.82143" fill="#3A06CC"/>
<circle cx="696.107" cy="869.036" r="4.82143" fill="#240B6C"/>
<circle cx="753.75" cy="869.036" r="4.82143" fill="#3A06CC"/>
<circle cx="811.393" cy="869.036" r="4.82143" fill="#240B6C"/>
<circle cx="869.036" cy="869.036" r="4.82143" fill="#3A06CC"/>
<circle cx="926.679" cy="869.036" r="4.82143" fill="#240B6C"/>
<circle cx="984.321" cy="869.036" r="4.82143" fill="#3A06CC"/>
<circle cx="1041.96" cy="869.036" r="4.82143" fill="#240B6C"/>
<circle cx="1099.61" cy="869.036" r="4.82143" fill="#240B6C"/>
<circle cx="580.821" cy="926.679" r="4.82143" fill="#240B6C"/>
<circle cx="638.464" cy="926.679" r="4.82143" fill="#240B6C"/>
<circle cx="696.107" cy="926.679" r="4.82143" fill="#240B6C"/>
<circle cx="753.75" cy="926.679" r="4.82143" fill="#240B6C"/>
<circle cx="811.393" cy="926.679" r="4.82143" fill="#240B6C"/>
<circle cx="869.036" cy="926.679" r="4.82143" fill="#240B6C"/>
<circle cx="926.679" cy="926.679" r="4.82143" fill="#240B6C"/>
<circle cx="984.321" cy="926.679" r="4.82143" fill="#240B6C"/>
<circle cx="1041.96" cy="926.679" r="4.82143" fill="#240B6C"/>
<circle cx="1099.61" cy="926.679" r="4.82143" fill="#240B6C"/>
<circle cx="580.821" cy="984.321" r="4.82143" fill="#240B6C"/>
<circle cx="638.464" cy="984.321" r="4.82143" fill="#240B6C"/>
<circle cx="696.107" cy="984.321" r="4.82143" fill="#240B6C"/>
<circle cx="753.75" cy="984.321" r="4.82143" fill="#240B6C"/>
<circle cx="811.393" cy="984.321" r="4.82143" fill="#240B6C"/>
<circle cx="869.036" cy="984.321" r="4.82143" fill="#240B6C"/>
<circle cx="926.679" cy="984.321" r="4.82143" fill="#240B6C"/>
<circle cx="984.321" cy="984.321" r="4.82143" fill="#240B6C"/>
<circle cx="1041.96" cy="984.321" r="4.82143" fill="#240B6C"/>
<circle cx="1099.61" cy="984.321" r="4.82143" fill="#240B6C"/>
<circle cx="580.821" cy="1041.96" r="4.82143" fill="#240B6C"/>
<circle cx="638.464" cy="1041.96" r="4.82143" fill="#240B6C"/>
<circle cx="696.107" cy="1041.96" r="4.82143" fill="#240B6C"/>
<circle cx="753.75" cy="1041.96" r="4.82143" fill="#240B6C"/>
<circle cx="811.393" cy="1041.96" r="4.82143" fill="#240B6C"/>
<circle cx="869.036" cy="1041.96" r="4.82143" fill="#240B6C"/>
<circle cx="926.679" cy="1041.96" r="4.82143" fill="#240B6C"/>
<circle cx="984.321" cy="1041.96" r="4.82143" fill="#240B6C"/>
<circle cx="1041.96" cy="1041.96" r="4.82143" fill="#240B6C"/>
<circle cx="1099.61" cy="1041.96" r="4.82143" fill="#240B6C"/>
<circle cx="580.821" cy="1099.61" r="4.82143" fill="#240B6C"/>
<circle cx="638.464" cy="1099.61" r="4.82143" fill="#240B6C"/>
<circle cx="696.107" cy="1099.61" r="4.82143" fill="#240B6C"/>
<circle cx="753.75" cy="1099.61" r="4.82143" fill="#240B6C"/>
<circle cx="811.393" cy="1099.61" r="4.82143" fill="#240B6C"/>
<circle cx="869.036" cy="1099.61" r="4.82143" fill="#240B6C"/>
<circle cx="926.679" cy="1099.61" r="4.82143" fill="#240B6C"/>
<circle cx="984.321" cy="1099.61" r="4.82143" fill="#240B6C"/>
<circle cx="1041.96" cy="1099.61" r="4.82143" fill="#240B6C"/>
<circle cx="1099.61" cy="1099.61" r="4.82143" fill="#240B6C"/>
</g>
</svg>
